<svg xmlns="http://www.w3.org/2000/svg" xmlns:xlink="http://www.w3.org/1999/xlink" width="500" zoomAndPan="magnify" viewBox="0 0 375 374.999991" height="500" preserveAspectRatio="xMidYMid meet" version="1.0"><defs><g/></defs><g fill="#b95d22" fill-opacity="1"><g transform="translate(66.095989, 205.73828)"><g><path d="M 87.761719 36.332031 C 88.375 35.226562 89.113281 34.367188 89.601562 33.507812 C 91.933594 30.316406 93.40625 26.144531 93.40625 23.199219 C 93.40625 21.355469 92.179688 19.394531 90.832031 17.921875 C 90.460938 18.902344 89.726562 19.148438 88.867188 19.148438 C 87.882812 19.148438 86.78125 18.902344 85.550781 18.78125 C 84.691406 18.78125 83.832031 18.902344 83.097656 18.902344 C 81.871094 18.289062 79.660156 17.183594 78.066406 16.203125 C 77.207031 15.832031 75.734375 15.097656 74.136719 13.746094 C 73.15625 13.011719 72.171875 12.152344 71.929688 11.785156 C 70.578125 10.308594 68.492188 8.59375 67.507812 6.996094 C 66.527344 5.277344 63.949219 4.050781 62.722656 1.472656 L 62.597656 1.226562 C 61.125 -0.859375 59.039062 -3.3125 57.320312 -5.523438 C 55.480469 -8.46875 53.269531 -11.660156 51.921875 -13.378906 L 51.796875 -13.625 C 51.550781 -14.976562 51.0625 -15.464844 49.464844 -17.308594 L 48.359375 -18.65625 C 40.875 -29.582031 34.738281 -39.277344 32.648438 -41.734375 C 32.035156 -42.714844 35.351562 -43.820312 38.050781 -44.308594 C 40.75 -44.925781 44.308594 -45.539062 46.886719 -47.257812 C 48.359375 -47.746094 49.710938 -48.484375 51.183594 -49.34375 L 52.535156 -50.078125 C 53.394531 -50.691406 55.355469 -51.550781 57.074219 -52.902344 C 59.777344 -54.742188 62.355469 -56.832031 64.5625 -58.546875 C 67.019531 -61.003906 71.070312 -64.6875 73.03125 -68.246094 C 73.402344 -68.859375 74.382812 -69.964844 74.75 -70.699219 C 75.117188 -71.191406 75.609375 -71.558594 76.101562 -72.050781 L 76.960938 -72.785156 C 77.695312 -73.523438 78.1875 -74.261719 78.554688 -75.117188 C 79.046875 -75.734375 79.414062 -76.347656 79.785156 -76.960938 C 81.257812 -79.785156 81.378906 -83.710938 81.257812 -86.902344 C 81.257812 -92.179688 76.714844 -95.617188 72.785156 -96.230469 C 72.542969 -96.230469 72.296875 -96.355469 72.050781 -96.355469 C 71.070312 -96.96875 70.085938 -97.089844 68.980469 -97.089844 C 67.140625 -97.089844 65.300781 -96.355469 65.300781 -95.25 C 65.421875 -94.636719 65.914062 -94.390625 66.28125 -93.898438 C 67.019531 -93.164062 67.753906 -91.933594 67.507812 -88.988281 C 67.261719 -87.882812 66.773438 -86.535156 66.160156 -85.183594 C 65.546875 -83.589844 64.808594 -81.871094 63.949219 -80.152344 C 61.003906 -75.363281 59.53125 -72.296875 54.867188 -66.894531 C 52.410156 -63.582031 48.605469 -56.953125 43.941406 -53.515625 L 42.101562 -51.921875 C 41.363281 -51.0625 40.996094 -50.816406 40.75 -50.816406 L 38.664062 -50.078125 C 38.296875 -49.957031 37.191406 -49.832031 37.191406 -49.832031 C 37.070312 -49.832031 36.945312 -49.832031 36.824219 -49.957031 C 34.859375 -49.589844 33.019531 -49.34375 31.421875 -49.21875 C 29.828125 -48.851562 28.230469 -48.730469 27.25 -48.605469 L 26.757812 -48.484375 C 26.757812 -48.730469 26.882812 -48.976562 26.882812 -49.21875 L 26.882812 -49.957031 C 26.882812 -50.078125 26.882812 -50.078125 27.003906 -50.203125 C 27.617188 -53.882812 29.214844 -60.144531 30.195312 -63.949219 C 32.035156 -69.472656 33.753906 -74.875 33.878906 -79.167969 C 34.738281 -83.710938 35.472656 -87.761719 35.472656 -91.074219 C 35.351562 -93.53125 34.492188 -95.25 33.140625 -96.476562 C 31.914062 -98.441406 30.929688 -100.773438 29.214844 -101.507812 C 27.25 -102.738281 24.546875 -104.332031 22.339844 -104.699219 L 21.972656 -104.699219 C 19.148438 -104.699219 16.691406 -101.019531 14.484375 -98.6875 C 14.238281 -98.6875 14.238281 -98.441406 14.359375 -98.195312 C 14.359375 -98.070312 14.359375 -97.828125 14.484375 -97.582031 C 14.359375 -97.214844 14.359375 -96.722656 14.359375 -96.230469 L 14.359375 -94.144531 C 13.5 -87.882812 12.644531 -81.625 11.90625 -74.628906 C 11.292969 -73.644531 11.046875 -72.417969 11.046875 -71.070312 L 7.363281 -56.832031 C 6.261719 -54.621094 5.890625 -53.148438 5.890625 -51.796875 L 5.890625 -51.429688 L 2.824219 -40.996094 C 1.839844 -35.964844 0.492188 -30.441406 0.367188 -26.144531 L 0.367188 -26.023438 C -0.859375 -21.601562 -1.839844 -17.308594 -1.964844 -13.5 C -1.964844 -12.152344 -1.839844 -10.800781 -1.59375 -9.453125 L -2.085938 -6.382812 C -2.085938 -5.03125 -1.839844 -3.804688 -1.472656 -2.824219 L -1.226562 -1.105469 C -1.351562 1.226562 -1.351562 3.929688 -1.351562 6.015625 C -0.613281 9.695312 0.859375 11.046875 3.070312 11.539062 L 4.050781 11.539062 C 4.785156 12.152344 6.261719 12.886719 7.242188 12.886719 C 8.960938 12.152344 8.46875 8.222656 12.027344 2.578125 C 12.765625 1.839844 13.625 1.472656 13.746094 0.492188 C 13.871094 0.121094 13.871094 -0.492188 13.871094 -1.226562 L 13.871094 -1.59375 C 13.871094 -6.628906 16.570312 -6.875 16.570312 -10.1875 C 16.570312 -10.308594 16.570312 -10.433594 16.449219 -10.679688 C 17.429688 -16.078125 20.128906 -21.726562 20.253906 -26.265625 C 20.253906 -26.636719 20.128906 -27.125 20.007812 -27.496094 C 20.988281 -30.5625 21.726562 -33.140625 21.726562 -34.121094 C 21.726562 -34.246094 21.726562 -34.492188 21.601562 -34.859375 L 21.601562 -35.472656 C 22.460938 -37.070312 22.953125 -38.171875 23.445312 -39.277344 C 23.691406 -40.015625 24.671875 -38.050781 25.039062 -38.417969 C 26.390625 -34.738281 30.929688 -22.953125 33.878906 -14.484375 C 35.472656 -9.695312 38.171875 -3.804688 40.261719 0.367188 L 43.328125 5.644531 C 44.925781 8.347656 46.519531 11.539062 48.359375 13.871094 C 48.484375 13.992188 48.605469 14.238281 48.605469 14.359375 L 48.605469 14.484375 L 51.429688 18.167969 C 55.480469 23.074219 61.371094 29.582031 65.546875 32.40625 L 66.648438 33.261719 C 70.332031 35.71875 76.960938 38.910156 81.5 38.910156 C 84.078125 38.910156 86.65625 37.929688 87.761719 36.332031 Z M 87.761719 36.332031 "/></g></g></g><g fill="#efa54d" fill-opacity="1"><g transform="translate(137.784574, 205.73828)"><g><path d="M 2.085938 -24.546875 C 2.332031 -22.214844 2.699219 -21.480469 3.3125 -21.480469 C 4.050781 -21.480469 9.207031 -29.214844 9.941406 -31.054688 L 11.785156 -34.859375 L 11.785156 -34.738281 C 12.644531 -35.71875 12.273438 -35.71875 12.644531 -36.945312 C 13.257812 -38.542969 13.992188 -39.644531 14.605469 -40.503906 C 14.730469 -40.628906 14.851562 -40.75 15.097656 -40.75 C 15.832031 -40.75 16.9375 -40.136719 17.675781 -39.890625 C 18.535156 -39.523438 19.394531 -39.277344 20.128906 -39.277344 C 20.253906 -39.277344 20.5 -39.402344 20.742188 -39.523438 C 20.867188 -39.402344 20.867188 -39.402344 21.113281 -39.402344 C 21.355469 -39.402344 21.972656 -39.769531 22.460938 -40.015625 C 22.585938 -40.136719 22.707031 -40.136719 22.832031 -40.136719 L 22.832031 -40.015625 C 22.832031 -39.769531 22.832031 -39.523438 22.707031 -39.277344 L 22.585938 -38.296875 C 22.585938 -38.296875 22.707031 -38.171875 22.707031 -38.296875 C 22.953125 -36.085938 21.601562 -33.632812 20.375 -31.054688 C 18.78125 -27.863281 16.816406 -23.566406 16.816406 -19.515625 C 16.691406 -17.550781 16.203125 -15.34375 15.710938 -13.378906 C 15.21875 -11.167969 14.851562 -9.207031 14.976562 -7.734375 C 15.957031 3.191406 21.601562 11.292969 31.789062 12.152344 C 36.332031 12.152344 41.242188 10.800781 46.886719 3.3125 C 48.117188 0.738281 49.34375 -1.839844 50.9375 -4.296875 L 52.167969 -6.136719 C 53.023438 -7.242188 55.113281 -11.539062 56.460938 -14.238281 L 57.445312 -16.203125 L 58.179688 -18.289062 C 61.25 -25.777344 60.882812 -27.125 60.144531 -27.617188 L 60.265625 -27.617188 L 60.023438 -27.863281 C 59.898438 -28.230469 59.898438 -28.476562 59.898438 -28.722656 C 59.898438 -29.335938 59.898438 -29.703125 59.777344 -29.703125 C 58.671875 -29.703125 56.832031 -23.566406 56.585938 -22.707031 C 56.09375 -21.113281 55.480469 -19.394531 54.621094 -17.308594 C 50.449219 -6.261719 40.503906 6.75 35.839844 6.75 C 35.59375 6.75 35.226562 6.75 34.980469 6.503906 C 34.367188 6.875 33.878906 7.117188 33.507812 7.117188 C 31.300781 7.117188 30.6875 2.210938 30.195312 -1.472656 L 30.070312 -2.578125 C 30.316406 -2.824219 30.195312 -2.945312 30.195312 -3.3125 L 29.949219 -5.769531 L 29.949219 -7.609375 C 29.949219 -10.1875 30.316406 -12.886719 31.054688 -15.589844 L 33.632812 -21.480469 C 35.351562 -26.636719 37.4375 -30.6875 39.15625 -33.753906 C 40.875 -36.945312 42.101562 -39.277344 41.976562 -40.75 C 41.609375 -45.046875 34.367188 -50.203125 32.648438 -50.203125 C 31.914062 -50.078125 29.214844 -48.976562 25.53125 -46.765625 L 20.621094 -43.820312 L 20.742188 -43.820312 C 20.128906 -43.574219 19.640625 -43.453125 19.148438 -43.453125 C 19.148438 -43.453125 19.148438 -43.574219 19.023438 -43.695312 L 19.023438 -43.574219 L 18.535156 -44.554688 L 18.289062 -44.554688 C 17.429688 -44.554688 17.0625 -45.414062 16.816406 -45.414062 C 16.691406 -45.414062 16.570312 -45.292969 16.570312 -45.292969 C 16.816406 -46.152344 17.183594 -46.519531 18.042969 -48.359375 C 20.621094 -53.761719 24.671875 -62.476562 24.304688 -68.492188 C 23.933594 -72.171875 20.988281 -74.382812 17.550781 -74.382812 C 9.328125 -74.382812 4.417969 -61.738281 4.785156 -53.269531 C 4.785156 -52.65625 5.03125 -52.167969 5.277344 -51.796875 L 5.402344 -51.183594 C 5.402344 -50.449219 6.75 -48.605469 8.101562 -46.765625 C 9.453125 -45.046875 10.800781 -43.207031 10.800781 -42.714844 C 10.925781 -40.996094 8.59375 -36.332031 6.875 -33.140625 C 5.890625 -31.300781 2.085938 -24.792969 2.085938 -24.546875 Z M -47.871094 12.027344 C -56.707031 12.027344 -65.300781 12.644531 -72.050781 13.378906 C -73.769531 13.746094 -75.488281 13.992188 -77.207031 13.992188 C -78.308594 14.117188 -81.132812 14.605469 -89.847656 17.429688 L -94.636719 19.515625 L -88.375 19.640625 C -88.253906 19.640625 -88.128906 19.761719 -88.007812 19.761719 C -87.761719 19.761719 -87.394531 19.640625 -87.148438 19.515625 C -85.796875 19.269531 -83.34375 19.269531 -80.519531 19.148438 C -77.082031 19.148438 -73.15625 19.023438 -71.191406 18.535156 C -68.613281 17.921875 -64.929688 17.675781 -61.25 17.429688 C -58.671875 17.308594 -56.09375 17.0625 -54.007812 16.691406 C -53.882812 16.570312 -53.882812 16.570312 -53.761719 16.570312 C -53.515625 16.570312 -53.394531 16.816406 -53.148438 16.816406 C -53.023438 16.9375 -53.023438 16.816406 -52.902344 16.816406 L -51.550781 16.816406 C -38.664062 17.429688 -28.722656 18.167969 -17.308594 21.355469 C -14.117188 22.460938 -10.679688 23.320312 -7.117188 24.304688 C 3.070312 27.125 13.5 30.195312 15.957031 34.246094 C 17.796875 37.4375 18.78125 39.523438 20.007812 39.523438 C 21.480469 39.523438 23.933594 36.945312 29.214844 30.929688 L 30.929688 28.96875 C 28.476562 24.792969 23.566406 18.65625 11.414062 17.550781 C 2.085938 13.871094 -6.875 10.679688 -20.988281 10.679688 C -26.390625 10.679688 -32.40625 11.167969 -39.644531 12.152344 C -42.347656 12.027344 -45.167969 12.027344 -47.871094 12.027344 Z M 18.410156 -64.441406 C 18.78125 -64.316406 19.023438 -63.828125 19.023438 -63.335938 C 19.269531 -60.511719 16.816406 -54.007812 14.117188 -48.117188 L 13.992188 -48.605469 C 13.5 -49.710938 12.765625 -51.550781 12.519531 -53.394531 C 12.519531 -56.953125 16.203125 -63.457031 18.410156 -64.441406 Z M 18.410156 -64.441406 "/></g></g></g><g fill="#efa54d" fill-opacity="1"><g transform="translate(191.542299, 205.73828)"><g><path d="M 31.300781 -16.9375 L 31.300781 -17.0625 L 31.667969 -18.042969 L 31.667969 -17.921875 C 33.878906 -21.355469 35.71875 -24.671875 37.3125 -27.371094 L 38.296875 -29.089844 C 38.664062 -29.828125 39.15625 -30.5625 39.523438 -31.054688 L 39.523438 -31.175781 C 39.769531 -31.421875 39.769531 -31.667969 39.644531 -31.914062 C 40.261719 -33.507812 39.644531 -34.246094 38.785156 -34.246094 C 38.171875 -34.246094 37.558594 -34 36.945312 -33.386719 C 33.753906 -27.003906 28.230469 -18.167969 23.8125 -12.886719 L 22.953125 -11.90625 C 21.726562 -10.554688 20.375 -9.082031 18.902344 -8.222656 C 16.9375 -6.503906 15.34375 -5.277344 14.484375 -4.910156 C 13.5 -5.15625 12.886719 -5.890625 12.886719 -6.75 C 12.886719 -7.855469 13.5 -9.207031 14.359375 -10.800781 L 14.851562 -11.292969 C 15.34375 -11.785156 15.34375 -11.90625 15.21875 -12.273438 L 15.097656 -12.398438 C 15.710938 -15.464844 16.691406 -18.902344 17.921875 -22.214844 L 17.921875 -22.953125 C 18.167969 -23.445312 18.535156 -24.304688 18.65625 -24.792969 C 19.269531 -26.265625 20.007812 -28.109375 20.621094 -30.070312 C 20.5 -30.5625 20.5 -31.054688 20.5 -31.546875 C 20.5 -31.914062 20.5 -32.648438 20.375 -33.019531 C 20.375 -33.386719 20.375 -34 20.253906 -34.367188 L 20.128906 -34.738281 C 20.007812 -34.738281 20.007812 -34.859375 20.007812 -34.980469 L 20.253906 -35.964844 C 20.742188 -37.558594 20.988281 -39.277344 20.867188 -40.503906 C 20.253906 -44.800781 17.429688 -50.078125 12.519531 -50.078125 C 11.785156 -50.078125 11.167969 -49.957031 10.679688 -49.589844 C 9.453125 -49.097656 8.714844 -47.746094 8.347656 -45.90625 L 8.347656 -45.167969 C 7.363281 -41.855469 5.890625 -38.296875 4.417969 -34.738281 L 2.453125 -28.476562 C 1.839844 -25.53125 1.351562 -22.953125 0.980469 -20.5 L 0.980469 -18.289062 C 0.980469 -17.550781 0.859375 -16.816406 0.859375 -16.078125 C 0.859375 -9.328125 3.3125 -1.59375 10.800781 -0.121094 C 12.644531 -0.121094 14.238281 -0.246094 15.957031 -1.105469 L 15.957031 -0.980469 C 17.429688 -1.59375 18.902344 -2.699219 20.621094 -3.804688 L 20.5 -3.804688 L 21.113281 -4.171875 C 22.214844 -5.15625 23.320312 -6.503906 24.425781 -7.734375 L 25.53125 -8.960938 C 27.496094 -11.046875 29.089844 -13.378906 30.5625 -15.589844 Z M 30.195312 -70.824219 C 30.808594 -71.683594 31.175781 -72.542969 31.546875 -73.15625 L 31.421875 -73.15625 C 32.160156 -74.136719 32.648438 -75.117188 32.527344 -76.46875 C 32.28125 -77.207031 31.667969 -78.066406 30.929688 -78.679688 C 28.84375 -80.398438 25.164062 -81.746094 23.445312 -81.625 C 21.601562 -81.625 19.515625 -80.644531 17.796875 -79.046875 C 16.570312 -77.941406 15.710938 -76.222656 15.832031 -73.644531 C 15.832031 -70.332031 17.429688 -67.386719 19.148438 -65.914062 C 20.742188 -64.929688 22.460938 -64.316406 24.058594 -64.195312 C 26.023438 -64.195312 26.511719 -64.808594 28.722656 -68.367188 Z M 30.195312 -70.824219 "/></g></g></g><g fill="#b95d22" fill-opacity="1"><g transform="translate(221.121447, 205.73828)"><g><path d="M 30.929688 -53.515625 C 28.84375 -48.976562 26.511719 -43.328125 25.164062 -37.191406 L 23.566406 -34.738281 C 21.355469 -31.175781 20.253906 -22.953125 19.269531 -21.113281 C 18.78125 -20.621094 17.675781 -18.78125 16.203125 -16.449219 C 11.292969 -17.429688 6.875 -21.113281 -4.296875 -21.113281 C -17.308594 -21.113281 -24.058594 -13.746094 -24.058594 -5.277344 C -24.058594 5.03125 -12.886719 14.238281 -0.492188 14.238281 C 19.515625 14.238281 26.511719 0.246094 27.617188 -0.613281 C 28.96875 0.246094 30.316406 1.226562 31.667969 2.210938 C 36.578125 6.996094 43.695312 12.398438 46.886719 15.097656 C 49.957031 18.65625 52.167969 20.742188 56.214844 23.566406 C 56.707031 24.917969 63.457031 27.863281 64.070312 28.96875 L 70.085938 34.980469 C 71.070312 36.210938 72.417969 37.3125 73.769531 37.683594 L 77.820312 40.503906 C 80.273438 41.488281 87.394531 44.433594 90.09375 44.433594 C 90.585938 44.433594 90.953125 44.308594 91.074219 44.066406 C 95.125 45.046875 99.054688 45.414062 102.980469 45.414062 C 107.769531 46.273438 112.554688 47.132812 117.097656 47.132812 C 127.285156 47.132812 142.75 39.644531 147.660156 32.773438 C 148.273438 32.28125 148.765625 31.914062 149.132812 31.421875 C 150.117188 31.300781 150.851562 30.808594 151.21875 29.703125 C 151.21875 29.949219 151.21875 29.949219 151.34375 29.949219 C 151.710938 29.949219 151.710938 29.335938 151.710938 28.84375 C 151.710938 28.230469 151.710938 27.496094 151.464844 26.636719 L 151.464844 26.023438 C 151.464844 24.425781 151.34375 22.953125 150.117188 20.621094 C 149.746094 19.148438 149.5 17.921875 149.5 17.183594 L 149.5 16.570312 C 149.5 15.097656 148.886719 12.398438 148.398438 12.398438 C 147.90625 12.398438 146.554688 13.011719 145.574219 14.117188 C 142.628906 16.816406 135.019531 24.917969 126.304688 24.917969 C 125.445312 24.917969 124.460938 24.792969 123.601562 24.671875 C 120.289062 26.265625 115.992188 27.25 111.941406 27.738281 C 103.226562 27.003906 93.53125 28.476562 80.765625 23.691406 C 75.242188 20.867188 69.839844 17.0625 63.703125 13.132812 C 57.691406 9.328125 51.183594 5.523438 45.167969 1.105469 L 41.609375 -1.472656 C 38.417969 -3.804688 34.980469 -5.890625 31.667969 -8.101562 C 34.980469 -13.011719 36.578125 -16.9375 39.277344 -22.832031 C 41.855469 -28.476562 45.167969 -33.632812 45.167969 -40.628906 C 45.046875 -41.117188 44.925781 -41.488281 44.925781 -41.976562 C 44.925781 -42.347656 44.925781 -42.714844 45.046875 -43.207031 L 46.027344 -45.90625 C 46.398438 -47.132812 46.886719 -47.871094 47.378906 -48.730469 L 48.851562 -55.601562 L 48.359375 -55.847656 C 48.605469 -56.707031 48.976562 -57.445312 49.464844 -57.933594 C 49.464844 -58.179688 49.957031 -58.671875 50.203125 -58.917969 C 56.460938 -58.917969 72.417969 -74.015625 76.222656 -90.832031 C 76.835938 -93.777344 77.328125 -96.96875 77.328125 -100.773438 C 77.328125 -110.960938 74.015625 -111.328125 67.753906 -111.328125 C 66.894531 -111.328125 66.035156 -111.082031 65.175781 -110.835938 C 53.882812 -110.222656 39.15625 -81.992188 37.804688 -74.136719 L 34.367188 -66.40625 C 27.125 -66.773438 23.320312 -68.367188 20.742188 -73.15625 C 17.308594 -76.835938 15.464844 -81.625 15.464844 -87.148438 C 15.464844 -91.074219 16.324219 -95.738281 18.535156 -100.035156 C 24.304688 -107.402344 31.300781 -107.15625 31.667969 -107.15625 C 31.667969 -107.15625 32.527344 -106.417969 33.386719 -106.417969 C 33.878906 -106.417969 37.191406 -107.644531 37.191406 -108.628906 C 37.191406 -109.976562 32.40625 -111.695312 31.054688 -111.695312 C 30.5625 -111.695312 30.070312 -111.574219 29.582031 -111.082031 C 24.792969 -106.910156 15.710938 -106.542969 14.359375 -98.808594 C 11.167969 -93.40625 11.167969 -88.867188 11.167969 -84.9375 C 11.167969 -74.136719 20.375 -67.632812 29.949219 -61.003906 L 31.789062 -60.757812 Z M -3.558594 -17.429688 C -3.3125 -17.429688 -3.070312 -17.308594 -2.824219 -17.183594 L -2.085938 -17.183594 C 4.664062 -17.183594 11.292969 -13.625 13.746094 -12.273438 L 10.308594 -6.628906 C 9.941406 -6.015625 9.453125 -5.644531 9.082031 -5.402344 C 7.609375 -3.3125 6.261719 -1.59375 4.910156 -0.121094 C 2.453125 1.351562 -0.367188 2.210938 -3.683594 2.210938 C -11.414062 2.210938 -17.429688 -2.332031 -18.902344 -7.488281 L -18.902344 -7.976562 C -18.902344 -12.519531 -14.605469 -17.429688 -3.558594 -17.429688 Z M 67.878906 -100.894531 C 70.085938 -102.246094 71.070312 -102.980469 71.3125 -103.71875 C 72.050781 -103.226562 72.417969 -102.367188 72.417969 -101.019531 C 72.417969 -98.316406 71.070312 -95.003906 69.839844 -91.445312 C 67.140625 -82.851562 59.53125 -68.980469 53.515625 -66.28125 C 54.128906 -67.507812 55.847656 -69.964844 55.847656 -71.191406 C 55.847656 -75.976562 59.898438 -83.589844 61.617188 -88.128906 C 63.703125 -92.546875 66.40625 -94.757812 67.140625 -99.667969 Z M 67.878906 -100.894531 "/></g></g></g><g fill="#efa54d" fill-opacity="1"><g transform="translate(279.309418, 205.73828)"><g><path d="M 31.300781 -16.9375 L 31.300781 -17.0625 L 31.667969 -18.042969 L 31.667969 -17.921875 C 33.878906 -21.355469 35.71875 -24.671875 37.3125 -27.371094 L 38.296875 -29.089844 C 38.664062 -29.828125 39.15625 -30.5625 39.523438 -31.054688 L 39.523438 -31.175781 C 39.769531 -31.421875 39.769531 -31.667969 39.644531 -31.914062 C 40.261719 -33.507812 39.644531 -34.246094 38.785156 -34.246094 C 38.171875 -34.246094 37.558594 -34 36.945312 -33.386719 C 33.753906 -27.003906 28.230469 -18.167969 23.8125 -12.886719 L 22.953125 -11.90625 C 21.726562 -10.554688 20.375 -9.082031 18.902344 -8.222656 C 16.9375 -6.503906 15.34375 -5.277344 14.484375 -4.910156 C 13.5 -5.15625 12.886719 -5.890625 12.886719 -6.75 C 12.886719 -7.855469 13.5 -9.207031 14.359375 -10.800781 L 14.851562 -11.292969 C 15.34375 -11.785156 15.34375 -11.90625 15.21875 -12.273438 L 15.097656 -12.398438 C 15.710938 -15.464844 16.691406 -18.902344 17.921875 -22.214844 L 17.921875 -22.953125 C 18.167969 -23.445312 18.535156 -24.304688 18.65625 -24.792969 C 19.269531 -26.265625 20.007812 -28.109375 20.621094 -30.070312 C 20.5 -30.5625 20.5 -31.054688 20.5 -31.546875 C 20.5 -31.914062 20.5 -32.648438 20.375 -33.019531 C 20.375 -33.386719 20.375 -34 20.253906 -34.367188 L 20.128906 -34.738281 C 20.007812 -34.738281 20.007812 -34.859375 20.007812 -34.980469 L 20.253906 -35.964844 C 20.742188 -37.558594 20.988281 -39.277344 20.867188 -40.503906 C 20.253906 -44.800781 17.429688 -50.078125 12.519531 -50.078125 C 11.785156 -50.078125 11.167969 -49.957031 10.679688 -49.589844 C 9.453125 -49.097656 8.714844 -47.746094 8.347656 -45.90625 L 8.347656 -45.167969 C 7.363281 -41.855469 5.890625 -38.296875 4.417969 -34.738281 L 2.453125 -28.476562 C 1.839844 -25.53125 1.351562 -22.953125 0.980469 -20.5 L 0.980469 -18.289062 C 0.980469 -17.550781 0.859375 -16.816406 0.859375 -16.078125 C 0.859375 -9.328125 3.3125 -1.59375 10.800781 -0.121094 C 12.644531 -0.121094 14.238281 -0.246094 15.957031 -1.105469 L 15.957031 -0.980469 C 17.429688 -1.59375 18.902344 -2.699219 20.621094 -3.804688 L 20.5 -3.804688 L 21.113281 -4.171875 C 22.214844 -5.15625 23.320312 -6.503906 24.425781 -7.734375 L 25.53125 -8.960938 C 27.496094 -11.046875 29.089844 -13.378906 30.5625 -15.589844 Z M 30.195312 -70.824219 C 30.808594 -71.683594 31.175781 -72.542969 31.546875 -73.15625 L 31.421875 -73.15625 C 32.160156 -74.136719 32.648438 -75.117188 32.527344 -76.46875 C 32.28125 -77.207031 31.667969 -78.066406 30.929688 -78.679688 C 28.84375 -80.398438 25.164062 -81.746094 23.445312 -81.625 C 21.601562 -81.625 19.515625 -80.644531 17.796875 -79.046875 C 16.570312 -77.941406 15.710938 -76.222656 15.832031 -73.644531 C 15.832031 -70.332031 17.429688 -67.386719 19.148438 -65.914062 C 20.742188 -64.929688 22.460938 -64.316406 24.058594 -64.195312 C 26.023438 -64.195312 26.511719 -64.808594 28.722656 -68.367188 Z M 30.195312 -70.824219 "/></g></g></g></svg>